# AST/ASF file generated using VICON BodyLanguage
# -----------------------------------------------
:version 1.10
:name VICON
:units
  mass 1.0
  length 0.45
  angle deg
:documentation
   .ast/.asf automatically generated from VICON data using
   VICON BodyBuilder and BodyLanguage model FoxedUp or BRILLIANT.MOD
:root
   order TX TY TZ RX RY RZ
   axis XYZ
   position 0 0 0  
   orientation 0 0 0 
:bonedata
  begin
     id 1 
     name lhipjoint
     direction 0.711131 -0.61297 0.344326 
     length 2.29162 
     axis 0 0 0  XYZ
  end
  begin
     id 2 
     name lfemur
     direction 0.34202 -0.939693 0  
     length 6.71424  
     axis 0 0 20  XYZ
    dof rx ry rz
    limits (-160.0 20.0)
           (-70.0 70.0)
           (-60.0 70.0)
  end
  begin
     id 3 
     name ltibia
     direction 0.34202 -0.939693 0   
     length 6.7087   
     axis 0 0 20   XYZ
    dof rx
    limits (-10.0 170.0)
  end
  begin
     id 4 
     name lfoot
     direction 0.0230374 -0.0632947 0.997729   
     length 1.56743   
     axis -90 7.62852e-016 20   XYZ
    dof rx rz
    limits (-45.0 90.0)
           (-70.0 20.0)
  end
  begin
     id 5 
     name ltoes
     direction 1.53585e-011 -4.21885e-011 1   
     length 0.802914   
     axis -90 7.62852e-016 20   XYZ
    dof rx
    limits (-90.0 20.0)
  end
  begin
     id 6 
     name rhipjoint
     direction -0.733192 -0.592884 0.333043   
     length 2.36925  
     axis 0 0 0  XYZ 
  end
  begin
     id 7 
     name rfemur
     direction -0.34202 -0.939693 0   
     length 6.67027   
     axis 0 0 -20   XYZ
    dof rx ry rz
    limits (-160.0 20.0)
           (-70.0 70.0)
           (-70.0 60.0)
  end
  begin
     id 8 
     name rtibia
     direction -0.34202 -0.939693 0   
     length 6.6862   
     axis 0 0 -20   XYZ
    dof rx
    limits (-10.0 170.0)
 end
 begin
     id 9 
     name rfoot
     direction -0.0949739 -0.260939 0.960672   
     length 1.67698  
     axis -90 -7.62852e-016 -20   XYZ
    dof rx rz
    limits (-45.0 90.0)
           (-20.0 70.0)
  end
  begin
     id 10 
     name rtoes
     direction -1.5353e-011 -4.21868e-011 1   
     length 0.846298   
     axis -90 -7.62852e-016 -20   XYZ
    dof rx
    limits (-90.0 20.0)
  end
  begin
     id 11 
     name lowerback
     direction -0.0206828 0.999785 -0.00109866   
     length 2.04382   
     axis 0 0 0   XYZ
    dof rx ry rz
    limits (-20.0 45.0)
           (-30.0 30.0)
           (-30.0 30.0)
  end
  begin
     id 12 
     name upperback
     direction -0.0105003 0.999727 -0.0208904   
     length 2.04538   
     axis 0 0 0   XYZ
    dof rx ry rz
    limits (-20.0 45.0)
           (-30.0 30.0)
           (-30.0 30.0)
  end
  begin
     id 13 
     name thorax
     direction -0.000416255 0.999808 -0.0196023   
     length 2.0399   
     axis 0 0 0   XYZ
    dof rx ry rz
    limits (-20.0 45.0)
           (-30.0 30.0)
           (-30.0 30.0)
  end
  begin
     id 14 
     name lowerneck
     direction 0.0627861 0.989205 0.13241   
     length 1.46207   
     axis 0 0 0   XYZ
    dof rx ry rz
    limits (-20.0 45.0)
           (-30.0 30.0)
           (-30.0 30.0)
  end
  begin
     id 15 
     name upperneck
     direction 0.00627179 0.994526 0.104303   
     length 1.41419   
     axis 0 0 0   XYZ
    dof rx ry rz
    limits (-20.0 45.0)
           (-30.0 30.0)
           (-30.0 30.0)
  end
  begin
     id 16
     name head
     direction -0.00443838 0.999688 0.0245968  
     length 1.50718  
     axis 0 0 0   XYZ
    dof rx ry rz
    limits (-20.0 45.0)
           (-30.0 30.0)
           (-30.0 30.0)
  end
  begin
     id 17 
     name lclavicle
     direction 0.758742 0.650995 -0.0227258  
     length 2.86888  
     axis 0 0 0   XYZ
    dof ry rz
    limits (-20.0 10.0)
           (0.0 20.0)
  end
  begin
     id 18 
     name lhumerus
     direction 1 -4.48962e-011 1.06664e-027   
     length 4.65776   
     axis -180 -30 -90   XYZ
    dof rx ry rz
    limits (-60.0 90.0)
           (-90.0 90.0)
           (-90.0 90.0)
  end
  begin
     id 19
     name lradius
     direction 1 -4.48968e-011 1.40404e-026   
     length 3.55539   
     axis -180 -30 -90   XYZ
    dof rx
    limits (-10.0 170.0)
  end
  begin
     id 20
     name lwrist
     direction 1 -4.48976e-011 3.32647e-026   
     length 1.77769   
     axis -2.20186e-014 90 90   XYZ
    dof ry
    limits (-180.0 0.0)
 end
  begin
     id 21 
     name lhand
     direction 1 -4.48982e-011 6.65293e-026   
     length 0.707264   
     axis -4.24514e-014 90 90   XYZ
    dof rx rz
    limits (-90.0 90.0)
           (-45.0 45.0)
  end
  begin
     id 22 
     name lfingers
     direction 1 -4.48966e-011 1.33059e-025   
     length 0.570215   
     axis -8.49028e-014 90 90   XYZ
    dof rx
    limits (0.0 90.0)
  end
  begin
     id 23
     name lthumb
     direction 0.707107 -6.3493e-011 0.707107   
     length 0.818718   
     axis -90 45 2.85299e-015   XYZ
    dof rx rz
    limits (-45.0 45.0)
           (-45.0 45.0)
  end
  begin
     id 24 
     name rclavicle
     direction -0.870343 0.482028 -0.100759   
     length 3.2251  
     axis 0 0 0   XYZ 
    dof ry rz
    limits (-10.0 20.0)
           (-20.0 0.0)
  end
  begin
     id 25 
     name rhumerus
     direction -1 -4.48974e-011 -9.45849e-028  
     length 4.71925   
     axis -180 30 90   XYZ
    dof rx ry rz
    limits (-90.0 60.0)
           (-90.0 90.0)
           (-90.0 90.0)
  end
  begin
     id 26 
     name rradius
     direction -1 -4.48965e-011 1.17607e-026   
     length 3.5699   
     axis -180 30 90   XYZ
    dof rx
    limits (-10.0 170.0)
  end
  begin
     id 27 
     name rwrist
     direction -1 -4.48968e-011 3.32647e-026   
     length 1.78495   
     axis -2.20186e-014 -90 -90   XYZ
    dof ry
    limits (-180.0 0.0)
  end
  begin
     id 28
     name rhand
     direction -1 -4.48995e-011 6.65293e-026   
     length 0.507757   
     axis -4.24514e-014 -90 -90   XYZ
    dof rx rz
    limits (-90.0 90.0)
           (-45.0 45.0)
  end
  begin
     id 29
     name rfingers
     direction -1 -4.48864e-011 1.33059e-025   
     length 0.409367   
     axis -8.49028e-014 -90 -90   XYZ
    dof rx
    limits (0.0 90.0)
  end
  begin
     id 30
     name rthumb
     direction -0.707107 -6.3494e-011 0.707107   
     length 0.587771   
     axis -90 -45 -2.85299e-015   XYZ
    dof rx rz
    limits (-45.0 45.0)
           (-45.0 45.0)
  end
:hierarchy
  begin
    root lhipjoint rhipjoint lowerback
    lhipjoint lfemur
    lfemur ltibia
    ltibia lfoot
    lfoot ltoes
    rhipjoint rfemur
    rfemur rtibia
    rtibia rfoot
    rfoot rtoes
    lowerback upperback
    upperback thorax
    thorax lowerneck lclavicle rclavicle
    lowerneck upperneck
    upperneck head
    lclavicle lhumerus
    lhumerus lradius
    lradius lwrist
    lwrist lhand lthumb
    lhand lfingers
    rclavicle rhumerus
    rhumerus rradius
    rradius rwrist
    rwrist rhand rthumb
    rhand rfingers
  end

#!OML:ASF E:\Steps\Project 1\Capture day 1\Session 2\Subject.ASF
:FULLY-SPECIFIED
:DEGREES
1
root -1.27791 18.0907 21.6774 -156.795 1.42713 175.987
lowerback -17.4086 -2.04762 -9.88497
upperback 2.95298 -0.407064 -0.422323
thorax 13.3087 -0.902782 5.03312
lowerneck -0.599625 -3.07407 -1.61943
upperneck 26.516 -2.20909 3.65751
head 8.36916 0.109868 1.49637
rclavicle 3.08116e-015 -2.32578e-014
rhumerus -44.7251 -12.4446 -76.3516
rradius 48.4274
rwrist 22.0748
rhand -11.4807 -37.2209
rfingers 7.12502
rthumb 14.5573 -66.6901
lclavicle 3.08116e-015 -2.32578e-014
lhumerus -24.1036 2.93415 80.0489
lradius 48.1132
lwrist 32.6266
lhand -22.7375 -12.4266
lfingers 7.12502
lthumb 3.69659 17.5211
rfemur -29.313 10.635 14.227
rtibia 15.1119
rfoot -19.7874 -3.41448
rtoes -14.0707
lfemur -23.6959 -4.19758 -27.5833
ltibia 6.06198
lfoot -6.62279 -2.00628
ltoes -46.1247
2
root -1.29607 18.0476 21.6877 -154.868 1.01057 176.143
lowerback -19.4287 -2.26059 -9.04873
upperback 2.51253 -0.658774 -0.453565
thorax 14.0065 -0.96065 4.44482
lowerneck -0.583537 -3.05592 -1.5044
upperneck 26.3796 -2.23212 3.73527
head 8.31866 0.107965 1.49817
rclavicle -1.78906e-015 -1.43125e-014
rhumerus -44.1345 -14.0516 -74.9642
rradius 53.1971
rwrist 0.0301262
rhand 3.9403 -52.298
rfingers 7.12502
rthumb 29.3587 -79.9995
lclavicle -1.78906e-015 -1.43125e-014
lhumerus -24.2118 1.10591 80.8304
lradius 47.0537
lwrist 28.2718
lhand -23.1376 -12.2596
lfingers 7.12502
lthumb 3.3102 17.6945
rfemur -31.6514 9.78836 14.0952
rtibia 15.5024
rfoot -19.6829 -3.33581
rtoes -14.8299
lfemur -26.2873 -4.76844 -27.2819
ltibia 6.73818
lfoot -4.78201 -3.32209
ltoes -36.381
3
root -1.28569 18.0417 21.6696 -154.68 0.785849 176.422
lowerback -19.7964 -2.15933 -8.78744
upperback 2.47821 -0.738709 -0.326893
thorax 14.1787 -1.05879 4.39725
lowerneck -0.47738 -3.11186 -1.39532
upperneck 26.2906 -2.31917 3.72269
head 8.26964 0.073588 1.46789
rclavicle -9.34288e-015 2.64384e-014
rhumerus -44.1491 -13.5682 -75.2897
rradius 52.9954
rwrist -2.06259
rhand 0.413438 -54.1433
rfingers 7.12502
rthumb 25.9863 -82.3865
lclavicle -9.34288e-015 2.64384e-014
lhumerus -24.5804 -0.700066 81.7187
lradius 46.0733
lwrist 23.5834
lhand -23.5063 -12.1831
lfingers 7.12502
lthumb 2.95418 17.7762
rfemur -31.5263 9.91012 14.4414
rtibia 15.1476
rfoot -19.8708 -2.93162
rtoes -13.1021
lfemur -26.4037 -4.56949 -26.9302
ltibia 6.6796
lfoot -2.96614 -4.66049
ltoes -24.8626
4
root -1.28026 18.0392 21.6547 -154.466 0.646245 176.723
lowerback -20.2514 -2.0848 -8.39839
upperback 2.47099 -0.69607 -0.246824
thorax 14.4242 -1.02006 4.27937
lowerneck -0.31789 -3.13527 -1.32525
upperneck 26.0639 -2.38164 3.75465
head 8.16398 0.0428687 1.4587
rclavicle -1.78906e-015 2.74323e-014
rhumerus -44.0986 -13.1773 -75.7941
rradius 52.875
rwrist -4.54167
rhand -5.3299 -55.7016
rfingers 7.12502
rthumb 20.4764 -84.6419
lclavicle -1.78906e-015 2.74323e-014
lhumerus -24.9354 -2.74164 82.6942
lradius 45.0834
lwrist 18.1805
lhand -23.8461 -12.2203
lfingers 7.12502
lthumb 2.62596 17.7433
rfemur -31.5802 9.95866 14.8297
rtibia 15.0281
rfoot -20.0016 -2.44884
rtoes -11.9909
lfemur -26.5668 -4.45086 -26.5516
ltibia 6.59918
lfoot -1.16273 -5.6016
ltoes -11.691
5
root -1.27668 18.0346 21.6421 -154.004 0.47721 177.243
lowerback -20.9481 -1.96666 -7.75462
upperback 2.39565 -0.657413 -0.0890695
thorax 14.7268 -0.966114 4.10471
lowerneck -0.191759 -3.19664 -1.31933
upperneck 25.7983 -2.49388 3.73054
head 8.05321 -0.028062 1.43716
rclavicle 1.19271e-015 -4.19436e-014
rhumerus -44.0199 -12.5152 -76.5703
rradius 52.8069
rwrist -8.45072
rhand -14.303 -58.0111
rfingers 7.12502
rthumb 11.8369 -87.6566
lclavicle 1.19271e-015 -4.19436e-014
lhumerus -25.5128 -5.57596 84.0884
lradius 43.8754
lwrist 10.6131
lhand -24.3609 -12.4822
lfingers 7.12502
lthumb 2.12882 17.4869
rfemur -31.9893 9.92835 15.475
rtibia 14.9964
rfoot -19.6695 -2.92062
rtoes -12.7899
lfemur -27.082 -4.38233 -25.8722
ltibia 6.61838
lfoot 1.51294 -6.66235
ltoes 7.3346
6
root -1.27126 18.0327 21.628 -153.671 0.310481 177.678
lowerback -21.4545 -1.89573 -7.21871
upperback 2.32283 -0.68315 0.0758656
thorax 14.9316 -0.94699 3.97929
lowerneck -0.129693 -3.23139 -1.31672
upperneck 25.6992 -2.53566 3.65046
head 8.00853 -0.060553 1.40548
rclavicle -6.16232e-015 -6.16232e-015
rhumerus -44.0197 -12.7906 -76.2878
rradius 52.7544
rwrist -6.92513
rhand -11.027 -58.9773
rfingers 7.12502
rthumb 14.9945 -88.4145
lclavicle -6.16232e-015 -6.16232e-015
lhumerus -26.1846 -7.76179 85.2835
lradius 42.8001
lwrist 4.14358
lhand -24.7325 -12.7925
lfingers 7.12502
lthumb 1.76997 17.1799
rfemur -32.1578 9.85795 16.0478
rtibia 14.7244
rfoot -19.3765 -2.44996
rtoes -10.4543
lfemur -27.3893 -4.32525 -25.2741
ltibia 6.621
lfoot 4.13164 -7.59005
ltoes 23.5123
7
root -1.26153 18.0281 21.6172 -153.664 0.355085 177.484
lowerback -21.5346 -1.95995 -7.43056
upperback 2.29575 -0.709404 0.0742698
thorax 14.9551 -0.978014 4.08916
lowerneck 0.190241 -3.16732 -1.27635
upperneck 25.3735 -2.45749 3.60928
head 7.83737 -0.0381986 1.38637
rclavicle -2.5345e-015 1.37161e-014
rhumerus -44.0178 -13.1163 -75.9536
rradius 52.3553
rwrist -5.77152
rhand -8.10385 -58.1867
rfingers 7.12502
rthumb 17.8089 -87.3913
lclavicle -2.5345e-015 1.37161e-014
lhumerus -26.5132 -7.96246 85.5726
lradius 42.1087
lwrist 2.30604
lhand -27.0413 -11.9978
lfingers 7.12502
lthumb -0.45999 17.9814
rfemur -31.9998 9.85231 15.845
rtibia 14.4519
rfoot -19.1369 -3.10294
rtoes -11.6485
lfemur -27.293 -4.18556 -25.5167
ltibia 6.59068
lfoot -3.96196 -3.60181
ltoes -34.4958
8
root -1.26144 18.0255 21.6143 -153.462 0.349514 177.528
lowerback -21.9587 -1.88876 -7.20847
upperback 2.34278 -0.630001 0.0319429
thorax 15.2462 -0.932714 3.93864
lowerneck 0.462139 -3.13325 -1.09863
upperneck 24.8377 -2.4851 3.64604
head 7.60658 -0.0632373 1.35839
rclavicle 1.19768e-014 3.57812e-015
rhumerus -43.7459 -13.418 -75.946
rradius 51.8801
rwrist -5.57527
rhand -7.8881 -58.9654
rfingers 7.12502
rthumb 18.0165 -88.151
lclavicle 1.19768e-014 3.57812e-015
lhumerus -26.4034 -7.99267 85.6388
lradius 41.4836
lwrist 1.67696
lhand -27.4966 -11.9218
lfingers 7.12502
lthumb -0.899713 18.0561
rfemur -32.1613 9.72749 15.9141
rtibia 14.3004
rfoot -18.6765 -3.13085
rtoes -11.2088
lfemur -27.5434 -4.18734 -25.4464
ltibia 6.6574
lfoot -3.9175 -3.70782
ltoes -35.7346
9
root -1.27294 18.0194 21.6158 -153.062 0.428205 177.622
lowerback -22.4504 -1.72885 -6.78264
upperback 2.29483 -0.490875 -0.029721
thorax 15.4507 -0.837745 3.6708
lowerneck 0.678886 -3.14671 -0.95402
upperneck 24.2384 -2.58259 3.63073
head 7.36795 -0.136716 1.3135
rclavicle -1.49089e-016 -1.78906e-015
rhumerus -43.5517 -13.5744 -75.9572
rradius 51.32
rwrist -5.69689
rhand -8.6269 -58.242
rfingers 7.12502
rthumb 17.3056 -87.4915
lclavicle -1.49089e-016 -1.78906e-015
lhumerus -26.2268 -7.8028 85.6939
lradius 40.8339
lwrist 1.63535
lhand -27.1976 -12.0732
lfingers 7.12502
lthumb -0.61092 17.9057
rfemur -32.6112 9.3704 16.0108
rtibia 14.1882
rfoot -18.2875 -2.91409
rtoes -11.538
lfemur -28.0367 -4.61483 -25.2298
ltibia 6.74059
lfoot -3.87941 -3.36715
ltoes -36.0588
